<svg width="570.226220703125px" height="68.02519531249999px" xmlns="http://www.w3.org/2000/svg" viewBox="-35.11311035156251 40.987402343750006 570.226220703125 68.02519531249999" style="background: rgba(0, 0, 0, 0);" preserveAspectRatio="xMidYMid"><defs><linearGradient id="editing-rainbow-gradient" x1="0" x2="1" y1="0.5" y2="0.5" gradientUnits="objectBoundingBox"><stop offset="0.00" stop-color="#f00"></stop><stop offset="0.17" stop-color="#f90"></stop><stop offset="0.34" stop-color="#ff4"></stop><stop offset="0.51" stop-color="#9f0"></stop><stop offset="0.68" stop-color="#09f"></stop><stop offset="0.85" stop-color="#00f"></stop><stop offset="1.00" stop-color="#90f"></stop></linearGradient><filter id="editing-rainbow" x="-100%" y="-100%" width="300%" height="300%"><feMorphology operator="dilate" radius="1,2" in="SourceGraphic" result="dilate"></feMorphology><feColorMatrix in="dilate" result="color" type="matrix" values="0.7 0 0 0 0  0 0.7 0 0 0  0 0 0.7 0 0  0 0 0 1 0"></feColorMatrix><feOffset dy="2" result="offset"></feOffset><feGaussianBlur stdDeviation="3"></feGaussianBlur><feOffset dy="3"></feOffset><feColorMatrix result="blur" type="matrix" values="0.7 0 0 0 0  0 0.7 0 0 0  0 0 0.7 0 0  0 0 0 1 0"></feColorMatrix><feMerge><feMergeNode in="blur"></feMergeNode><feMergeNode in="offset"></feMergeNode><feMergeNode in="SourceGraphic"></feMergeNode></feMerge></filter></defs><g filter="url(#editing-rainbow)"><g transform="translate(48.25467711687088, 86.25)"><path d="M14.16-15.90L14.16-15.90L14.16-15.90Q11.73-15.90 9.96-16.71L9.96-16.71L9-11.85L14.79-11.85L14.79-11.85Q14.79-10.26 13.99-9.25L13.99-9.25L13.99-9.25Q13.20-8.25 11.76-8.25L11.76-8.25L11.76-8.25Q10.20-8.25 8.76-8.82L8.76-8.82L8.76-8.82Q8.46-8.94 8.43-8.97L8.43-8.97L6.72 0L0.18 0L3.99-19.80L17.37-19.80L17.37-19.80Q17.37-17.97 16.52-16.93L16.52-16.93L16.52-16.93Q15.66-15.90 14.16-15.90ZM17.71-0.90L17.71-0.90L17.71-0.90Q17.01-1.68 16.70-2.91L16.70-2.91L16.70-2.91Q16.38-4.14 16.38-6.15L16.38-6.15L16.38-6.15Q16.38-8.16 17.07-9.99L17.07-9.99L17.07-9.99Q17.76-11.82 19.02-13.14L19.02-13.14L19.02-13.14Q21.60-15.90 25.86-15.90L25.86-15.90L25.86-15.90Q27.39-15.90 28.50-15.39L28.50-15.39L33.63-15.90L31.41-4.20L31.41-4.20Q31.32-3.84 31.32-3.18L31.32-3.18L31.32-3.18Q31.32-2.52 31.72-2.10L31.72-2.10L31.72-2.10Q32.13-1.68 32.73-1.62L32.73-1.62L32.73-1.62Q32.43-0.60 31.33 0L31.33 0L31.33 0Q30.24 0.60 29.01 0.60L29.01 0.60L29.01 0.60Q27.78 0.60 26.95 0.14L26.95 0.14L26.95 0.14Q26.13-0.33 25.89-1.11L25.89-1.11L25.89-1.11Q25.41-0.36 24.39 0.12L24.39 0.12L24.39 0.12Q23.37 0.60 22.00 0.60L22.00 0.60L22.00 0.60Q20.64 0.60 19.53 0.24L19.53 0.24L19.53 0.24Q18.42-0.12 17.71-0.90ZM24.04-13.08L24.04-13.08L24.04-13.08Q23.70-12.54 23.40-11.63L23.40-11.63L23.40-11.63Q23.10-10.71 22.60-8.27L22.60-8.27L22.60-8.27Q22.11-5.82 22.11-4.08L22.11-4.08L22.11-4.08Q22.11-2.34 22.38-1.83L22.38-1.83L22.38-1.83Q22.65-1.32 23.13-1.32L23.13-1.32L23.13-1.32Q24.09-1.32 24.79-2.23L24.79-2.23L24.79-2.23Q25.50-3.15 25.77-4.77L25.77-4.77L27.36-13.56L27.36-13.56Q26.73-14.10 25.99-14.10L25.99-14.10L25.99-14.10Q25.26-14.10 24.82-13.86L24.82-13.86L24.82-13.86Q24.39-13.62 24.04-13.08ZM50.34-3.33L50.34-3.33L50.34-3.33Q50.34-2.01 51.69-1.62L51.69-1.62L51.69-1.62Q51.36-0.51 50.07 0.09L50.07 0.09L50.07 0.09Q48.99 0.60 47.80 0.60L47.80 0.60L47.80 0.60Q46.62 0.60 46.00 0.28L46.00 0.28L46.00 0.28Q45.39-0.03 45.06-0.54L45.06-0.54L45.06-0.54Q44.52-1.32 44.52-2.79L44.52-2.79L44.52-2.79Q44.52-3.66 45.00-6.06L45.00-6.06L45.42-8.34L45.42-8.34Q45.93-10.95 45.93-11.91L45.93-11.91L45.93-11.91Q45.93-13.59 45.00-13.59L45.00-13.59L45.00-13.59Q43.83-13.59 43.08-11.88L43.08-11.88L43.08-11.88Q42.78-11.22 42.57-10.23L42.57-10.23L40.53 0L34.50 0.60L38.73-21L44.76-21.60L44.52-20.40L44.52-20.40Q43.68-15.78 42.96-14.22L42.96-14.22L42.96-14.22Q44.64-15.90 47.73-15.90L47.73-15.90L47.73-15.90Q51.00-15.90 51.60-13.74L51.60-13.74L51.60-13.74Q51.81-13.05 51.81-12.45L51.81-12.45L51.81-12.45Q51.81-11.85 51.76-11.38L51.76-11.38L51.76-11.38Q51.72-10.92 51.57-10.08L51.57-10.08L51.18-7.92L50.49-4.53L50.49-4.53Q50.34-3.84 50.34-3.33ZM55.42-0.90L55.42-0.90L55.42-0.90Q54.72-1.68 54.41-2.91L54.41-2.91L54.41-2.91Q54.09-4.14 54.09-6.15L54.09-6.15L54.09-6.15Q54.09-8.16 54.78-9.99L54.78-9.99L54.78-9.99Q55.47-11.82 56.73-13.14L56.73-13.14L56.73-13.14Q59.31-15.90 63.57-15.90L63.57-15.90L63.57-15.90Q65.10-15.90 66.21-15.39L66.21-15.39L71.34-15.90L69.12-4.20L69.12-4.20Q69.03-3.84 69.03-3.18L69.03-3.18L69.03-3.18Q69.03-2.52 69.44-2.10L69.44-2.10L69.44-2.10Q69.84-1.68 70.44-1.62L70.44-1.62L70.44-1.62Q70.14-0.60 69.05 0L69.05 0L69.05 0Q67.95 0.60 66.72 0.60L66.72 0.60L66.72 0.60Q65.49 0.60 64.66 0.14L64.66 0.14L64.66 0.14Q63.84-0.33 63.60-1.11L63.60-1.11L63.60-1.11Q63.12-0.36 62.10 0.12L62.10 0.12L62.10 0.12Q61.08 0.60 59.71 0.60L59.71 0.60L59.71 0.60Q58.35 0.60 57.24 0.24L57.24 0.24L57.24 0.24Q56.13-0.12 55.42-0.90ZM61.75-13.08L61.75-13.08L61.75-13.08Q61.41-12.54 61.11-11.63L61.11-11.63L61.11-11.63Q60.81-10.71 60.31-8.27L60.31-8.27L60.31-8.27Q59.82-5.82 59.82-4.08L59.82-4.08L59.82-4.08Q59.82-2.34 60.09-1.83L60.09-1.83L60.09-1.83Q60.36-1.32 60.84-1.32L60.84-1.32L60.84-1.32Q61.80-1.32 62.50-2.23L62.50-2.23L62.50-2.23Q63.21-3.15 63.48-4.77L63.48-4.77L65.07-13.56L65.07-13.56Q64.44-14.10 63.70-14.10L63.70-14.10L63.70-14.10Q62.97-14.10 62.53-13.86L62.53-13.86L62.53-13.86Q62.10-13.62 61.75-13.08ZM82.29-15.90L82.29-15.90L82.29-15.90Q83.37-15.90 84.21-15.66L84.21-15.66L84.21-15.66Q84.24-15.78 84.30-16.11L84.30-16.11L84.45-17.04L84.45-17.04Q84.57-17.64 84.75-18.63L84.75-18.63L85.23-21L91.20-21.60L87.87-4.20L87.87-4.20Q87.84-4.02 87.84-3.72L87.84-3.72L87.84-3.24L87.84-3.24Q87.84-2.58 88.17-2.08L88.17-2.08L88.17-2.08Q88.50-1.59 89.04-1.59L89.04-1.59L89.04-1.59Q88.44-0.18 86.61 0.42L86.61 0.42L86.61 0.42Q85.98 0.60 85.09 0.60L85.09 0.60L85.09 0.60Q84.21 0.60 83.40 0.14L83.40 0.14L83.40 0.14Q82.59-0.33 82.35-1.11L82.35-1.11L82.35-1.11Q81.87-0.33 80.91 0.14L80.91 0.14L80.91 0.14Q79.95 0.60 78.55 0.60L78.55 0.60L78.55 0.60Q77.16 0.60 76.00 0.24L76.00 0.24L76.00 0.24Q74.85-0.12 74.13-0.90L74.13-0.90L74.13-0.90Q72.81-2.43 72.81-5.91L72.81-5.91L72.81-5.91Q72.81-10.41 75.45-13.14L75.45-13.14L75.45-13.14Q78.09-15.90 82.29-15.90ZM82.08-14.10L82.08-14.10L82.08-14.10Q80.97-14.10 80.37-12.90L80.37-12.90L80.37-12.90Q79.77-11.70 79.16-8.73L79.16-8.73L79.16-8.73Q78.54-5.76 78.54-3.09L78.54-3.09L78.54-3.09Q78.54-1.26 79.62-1.26L79.62-1.26L79.62-1.26Q80.58-1.26 81.25-2.22L81.25-2.22L81.25-2.22Q81.93-3.18 82.20-4.77L82.20-4.77L83.82-13.56L83.82-13.56Q83.19-14.10 82.08-14.10ZM97.47-0.15L97.47-0.15L101.25-19.80L101.25-19.80Q104.79-20.10 107.07-20.10L107.07-20.10L107.07-20.10Q109.35-20.10 110.82-19.90L110.82-19.90L110.82-19.90Q112.29-19.71 113.28-19.20L113.28-19.20L113.28-19.20Q115.26-18.24 115.26-15.60L115.26-15.60L115.26-15.60Q115.26-14.07 113.94-12.78L113.94-12.78L113.94-12.78Q112.71-11.61 111.36-11.34L111.36-11.34L111.36-11.34Q112.80-11.10 113.82-10.02L113.82-10.02L113.82-10.02Q114.90-8.88 114.90-7.11L114.90-7.11L114.90-7.11Q114.90-3.69 112.35-1.69L112.35-1.69L112.35-1.69Q109.80 0.30 104.79 0.30L104.79 0.30L104.79 0.30Q101.34 0.30 97.47-0.15ZM105.63-9.66L104.13-1.89L104.13-1.89Q104.40-1.86 104.46-1.86L104.46-1.86L104.73-1.86L104.73-1.86Q107.19-1.86 108.24-3.48L108.24-3.48L108.24-3.48Q109.02-4.74 109.02-7.05L109.02-7.05L109.02-7.05Q109.02-8.28 108.22-8.94L108.22-8.94L108.22-8.94Q107.43-9.60 105.63-9.66L105.63-9.66ZM110.19-15.57L110.19-15.57L110.19-15.57Q110.19-18.06 107.79-18.06L107.79-18.06L107.52-18.06L107.52-18.06Q107.40-18.06 107.22-18.03L107.22-18.03L106.02-11.70L106.32-11.70L106.32-11.70Q110.19-11.79 110.19-15.57ZM124.08-1.65L124.08-1.65L124.08-1.65Q123.15 0.60 120.18 0.60L120.18 0.60L120.18 0.60Q118.65 0.60 117.69-0.45L117.69-0.45L117.69-0.45Q116.88-1.38 116.88-2.31L116.88-2.31L116.88-2.31Q116.88-4.74 117.99-9.48L117.99-9.48L119.10-15.30L125.19-15.90L123.36-6.42L123.36-6.42Q122.85-4.20 122.85-3.42L122.85-3.42L122.85-3.42Q122.85-1.71 124.08-1.65ZM119.64-19.47L119.64-19.47L119.64-19.47Q119.64-20.64 120.61-21.27L120.61-21.27L120.61-21.27Q121.59-21.90 123.00-21.90L123.00-21.90L123.00-21.90Q124.41-21.90 125.26-21.27L125.26-21.27L125.26-21.27Q126.12-20.64 126.12-19.47L126.12-19.47L126.12-19.47Q126.12-18.30 125.17-17.70L125.17-17.70L125.17-17.70Q124.23-17.10 122.82-17.10L122.82-17.10L122.82-17.10Q121.41-17.10 120.52-17.70L120.52-17.70L120.52-17.70Q119.64-18.30 119.64-19.47ZM139.32 0.60L139.32 0.60L139.32 0.60Q135.69 0.60 135.69-2.22L135.69-2.22L135.69-2.22Q135.72-3 135.96-4.32L135.96-4.32L136.50-7.08L136.50-7.08Q137.31-10.98 137.31-11.85L137.31-11.85L137.31-11.85Q137.31-13.59 136.29-13.59L136.29-13.59L136.29-13.59Q134.58-13.59 133.68-9.12L133.68-9.12L131.91 0L125.88 0.60L129-15.33L133.92-15.90L133.44-12.96L133.44-12.96Q134.85-15.90 139.17-15.90L139.17-15.90L139.17-15.90Q141.27-15.90 142.16-15.01L142.16-15.01L142.16-15.01Q143.04-14.13 143.04-12.15L143.04-12.15L143.04-12.15Q143.04-10.29 142.08-5.94L142.08-5.94L142.08-5.94Q141.63-3.99 141.63-3.25L141.63-3.25L141.63-3.25Q141.63-2.52 142.03-2.10L142.03-2.10L142.03-2.10Q142.44-1.68 143.04-1.62L143.04-1.62L143.04-1.62Q142.74-0.60 141.70 0L141.70 0L141.70 0Q140.67 0.60 139.32 0.60ZM162.81-2.25L162.81-2.25L162.81-2.25Q162.81-4.35 163.65-8.55L163.65-8.55L159.21-8.55L157.56 0L151.29 0L155.10-19.80L161.43-19.80L159.69-10.95L164.13-10.95L165.78-19.80L172.11-19.80L172.11-19.80Q171.69-17.58 171.15-15.09L171.15-15.09L170.13-10.20L170.13-10.20Q168.99-4.50 168.99-2.01L168.99-2.01L168.99-2.01Q168.99-0.99 169.32-0.42L169.32-0.42L169.32-0.42Q167.82 0.60 166.06 0.60L166.06 0.60L166.06 0.60Q164.31 0.60 163.56-0.24L163.56-0.24L163.56-0.24Q162.81-1.08 162.81-2.25ZM182.46-1.26L182.46-1.26L182.46-1.26Q181.02 0.60 177.45 0.60L177.45 0.60L177.45 0.60Q175.59 0.60 174.24-0.53L174.24-0.53L174.24-0.53Q172.89-1.65 172.89-3.27L172.89-3.27L172.89-3.27Q172.89-4.17 172.98-4.62L172.98-4.62L174.99-15.30L181.08-15.90L178.89-4.32L178.89-4.32Q178.77-3.66 178.77-3.27L178.77-3.27L178.77-3.27Q178.77-1.53 179.82-1.53L179.82-1.53L179.82-1.53Q180.99-1.53 181.83-3.12L181.83-3.12L181.83-3.12Q182.10-3.63 182.22-4.29L182.22-4.29L184.35-15.30L190.26-15.90L188.04-4.20L188.04-4.20Q187.95-3.75 187.95-3.27L187.95-3.27L187.95-3.27Q187.95-2.79 188.22-2.27L188.22-2.27L188.22-2.27Q188.49-1.74 189.36-1.62L189.36-1.62L189.36-1.62Q189.18-0.90 188.55-0.42L188.55-0.42L188.55-0.42Q187.23 0.60 185.81 0.60L185.81 0.60L185.81 0.60Q184.38 0.60 183.54 0.09L183.54 0.09L183.54 0.09Q182.70-0.42 182.46-1.26ZM200.85-10.53L200.85-10.53L200.85-10.53Q201.27-11.64 201.27-12.60L201.27-12.60L201.27-12.60Q201.27-14.37 199.83-14.37L199.83-14.37L199.83-14.37Q199.08-14.37 198.47-13.70L198.47-13.70L198.47-13.70Q197.85-13.02 197.85-12.18L197.85-12.18L197.85-12.18Q197.85-11.58 198.33-11.10L198.33-11.10L198.33-11.10Q199.02-10.44 200.79-9.36L200.79-9.36L200.79-9.36Q202.56-8.28 203.24-7.39L203.24-7.39L203.24-7.39Q203.91-6.51 203.91-5.29L203.91-5.29L203.91-5.29Q203.91-4.08 203.33-2.97L203.33-2.97L203.33-2.97Q202.74-1.86 201.69-1.08L201.69-1.08L201.69-1.08Q199.44 0.60 195.84 0.60L195.84 0.60L195.84 0.60Q193.89 0.60 192.39-0.42L192.39-0.42L192.39-0.42Q190.89-1.41 190.89-2.58L190.89-2.58L190.89-2.58Q190.89-3.75 191.75-4.44L191.75-4.44L191.75-4.44Q192.60-5.13 193.86-5.13L193.86-5.13L193.86-5.13Q195.12-5.13 195.90-4.65L195.90-4.65L195.90-4.65Q195.51-3.66 195.51-3L195.51-3L195.51-3Q195.51-1.02 197.19-1.02L197.19-1.02L197.19-1.02Q197.91-1.02 198.39-1.47L198.39-1.47L198.39-1.47Q198.87-1.92 198.87-2.70L198.87-2.70L198.87-2.70Q198.87-4.23 196.29-5.85L196.29-5.85L196.29-5.85Q194.19-7.23 193.71-7.77L193.71-7.77L193.71-7.77Q192.90-8.73 192.90-9.93L192.90-9.93L192.90-9.93Q192.90-11.13 193.47-12.27L193.47-12.27L193.47-12.27Q194.04-13.41 195.09-14.22L195.09-14.22L195.09-14.22Q197.28-15.90 201.09-15.90L201.09-15.90L201.09-15.90Q203.04-15.90 204.19-15.12L204.19-15.12L204.19-15.12Q205.35-14.34 205.35-13.02L205.35-13.02L205.35-13.02Q205.35-11.70 204.56-10.95L204.56-10.95L204.56-10.95Q203.76-10.20 202.32-10.20L202.32-10.20L202.32-10.20Q201.33-10.20 200.85-10.53ZM215.43-10.53L215.43-10.53L215.43-10.53Q215.85-11.64 215.85-12.60L215.85-12.60L215.85-12.60Q215.85-14.37 214.41-14.37L214.41-14.37L214.41-14.37Q213.66-14.37 213.05-13.70L213.05-13.70L213.05-13.70Q212.43-13.02 212.43-12.18L212.43-12.18L212.43-12.18Q212.43-11.58 212.91-11.10L212.91-11.10L212.91-11.10Q213.60-10.44 215.37-9.36L215.37-9.36L215.37-9.36Q217.14-8.28 217.82-7.39L217.82-7.39L217.82-7.39Q218.49-6.51 218.49-5.29L218.49-5.29L218.49-5.29Q218.49-4.08 217.91-2.97L217.91-2.97L217.91-2.97Q217.32-1.86 216.27-1.08L216.27-1.08L216.27-1.08Q214.02 0.60 210.42 0.60L210.42 0.60L210.42 0.60Q208.47 0.60 206.97-0.42L206.97-0.42L206.97-0.42Q205.47-1.41 205.47-2.58L205.47-2.58L205.47-2.58Q205.47-3.75 206.33-4.44L206.33-4.44L206.33-4.44Q207.18-5.13 208.44-5.13L208.44-5.13L208.44-5.13Q209.70-5.13 210.48-4.65L210.48-4.65L210.48-4.65Q210.09-3.66 210.09-3L210.09-3L210.09-3Q210.09-1.02 211.77-1.02L211.77-1.02L211.77-1.02Q212.49-1.02 212.97-1.47L212.97-1.47L212.97-1.47Q213.45-1.92 213.45-2.70L213.45-2.70L213.45-2.70Q213.45-4.23 210.87-5.85L210.87-5.85L210.87-5.85Q208.77-7.23 208.29-7.77L208.29-7.77L208.29-7.77Q207.48-8.73 207.48-9.93L207.48-9.93L207.48-9.93Q207.48-11.13 208.05-12.27L208.05-12.27L208.05-12.27Q208.62-13.41 209.67-14.22L209.67-14.22L209.67-14.22Q211.86-15.90 215.67-15.90L215.67-15.90L215.67-15.90Q217.62-15.90 218.78-15.12L218.78-15.12L218.78-15.12Q219.93-14.34 219.93-13.02L219.93-13.02L219.93-13.02Q219.93-11.70 219.14-10.95L219.14-10.95L219.14-10.95Q218.34-10.20 216.90-10.20L216.90-10.20L216.90-10.20Q215.91-10.20 215.43-10.53ZM222.35-0.90L222.35-0.90L222.35-0.90Q221.64-1.68 221.33-2.91L221.33-2.91L221.33-2.91Q221.01-4.14 221.01-6.15L221.01-6.15L221.01-6.15Q221.01-8.16 221.70-9.99L221.70-9.99L221.70-9.99Q222.39-11.82 223.65-13.14L223.65-13.14L223.65-13.14Q226.23-15.90 230.49-15.90L230.49-15.90L230.49-15.90Q232.02-15.90 233.13-15.39L233.13-15.39L238.26-15.90L236.04-4.20L236.04-4.20Q235.95-3.84 235.95-3.18L235.95-3.18L235.95-3.18Q235.95-2.52 236.36-2.10L236.36-2.10L236.36-2.10Q236.76-1.68 237.36-1.62L237.36-1.62L237.36-1.62Q237.06-0.60 235.97 0L235.97 0L235.97 0Q234.87 0.60 233.64 0.60L233.64 0.60L233.64 0.60Q232.41 0.60 231.59 0.14L231.59 0.14L231.59 0.14Q230.76-0.33 230.52-1.11L230.52-1.11L230.52-1.11Q230.04-0.36 229.02 0.12L229.02 0.12L229.02 0.12Q228.00 0.60 226.64 0.60L226.64 0.60L226.64 0.60Q225.27 0.60 224.16 0.24L224.16 0.24L224.16 0.24Q223.05-0.12 222.35-0.90ZM228.68-13.08L228.68-13.08L228.68-13.08Q228.33-12.54 228.03-11.63L228.03-11.63L228.03-11.63Q227.73-10.71 227.24-8.27L227.24-8.27L227.24-8.27Q226.74-5.82 226.74-4.08L226.74-4.08L226.74-4.08Q226.74-2.34 227.01-1.83L227.01-1.83L227.01-1.83Q227.28-1.32 227.76-1.32L227.76-1.32L227.76-1.32Q228.72-1.32 229.43-2.23L229.43-2.23L229.43-2.23Q230.13-3.15 230.40-4.77L230.40-4.77L231.99-13.56L231.99-13.56Q231.36-14.10 230.63-14.10L230.63-14.10L230.63-14.10Q229.89-14.10 229.46-13.86L229.46-13.86L229.46-13.86Q229.02-13.62 228.68-13.08ZM247.08-1.65L247.08-1.65L247.08-1.65Q246.15 0.60 243.18 0.60L243.18 0.60L243.18 0.60Q241.65 0.60 240.69-0.45L240.69-0.45L240.69-0.45Q239.88-1.38 239.88-2.31L239.88-2.31L239.88-2.31Q239.88-4.74 240.99-9.48L240.99-9.48L242.10-15.30L248.19-15.90L246.36-6.42L246.36-6.42Q245.85-4.20 245.85-3.42L245.85-3.42L245.85-3.42Q245.85-1.71 247.08-1.65ZM242.64-19.47L242.64-19.47L242.64-19.47Q242.64-20.64 243.62-21.27L243.62-21.27L243.62-21.27Q244.59-21.90 246.00-21.90L246.00-21.90L246.00-21.90Q247.41-21.90 248.27-21.27L248.27-21.27L248.27-21.27Q249.12-20.64 249.12-19.47L249.12-19.47L249.12-19.47Q249.12-18.30 248.18-17.70L248.18-17.70L248.18-17.70Q247.23-17.10 245.82-17.10L245.82-17.10L245.82-17.10Q244.41-17.10 243.53-17.70L243.53-17.70L243.53-17.70Q242.64-18.30 242.64-19.47ZM262.32 0.60L262.32 0.60L262.32 0.60Q258.69 0.60 258.69-2.22L258.69-2.22L258.69-2.22Q258.72-3 258.96-4.32L258.96-4.32L259.50-7.08L259.50-7.08Q260.31-10.98 260.31-11.85L260.31-11.85L260.31-11.85Q260.31-13.59 259.29-13.59L259.29-13.59L259.29-13.59Q257.58-13.59 256.68-9.12L256.68-9.12L254.91 0L248.88 0.60L252.00-15.33L256.92-15.90L256.44-12.96L256.44-12.96Q257.85-15.90 262.17-15.90L262.17-15.90L262.17-15.90Q264.27-15.90 265.16-15.01L265.16-15.01L265.16-15.01Q266.04-14.13 266.04-12.15L266.04-12.15L266.04-12.15Q266.04-10.29 265.08-5.94L265.08-5.94L265.08-5.94Q264.63-3.99 264.63-3.25L264.63-3.25L264.63-3.25Q264.63-2.52 265.04-2.10L265.04-2.10L265.04-2.10Q265.44-1.68 266.04-1.62L266.04-1.62L266.04-1.62Q265.74-0.60 264.71 0L264.71 0L264.71 0Q263.67 0.60 262.32 0.60ZM286.35-20.01L286.35-20.01L286.35-20.01Q293.70-20.01 293.70-14.82L293.70-14.82L293.70-14.82Q293.70-11.97 291.87-10.26L291.87-10.26L291.87-10.26Q290.07-8.55 286.92-8.55L286.92-8.55L286.92-8.55Q285.45-8.55 284.31-9.39L284.31-9.39L284.31-9.39Q283.77-9.75 283.41-10.23L283.41-10.23L283.41-10.23Q285.60-10.23 286.75-11.56L286.75-11.56L286.75-11.56Q287.91-12.90 287.91-15.51L287.91-15.51L287.91-15.51Q287.91-18.12 285.33-18.12L285.33-18.12L284.61-18.12L284.61-18.12Q284.43-18.12 284.28-18.09L284.28-18.09L280.83 0L274.32 0L278.01-19.65L278.01-19.65Q281.22-19.95 283.08-19.98L283.08-19.98L283.08-19.98Q284.94-20.01 286.35-20.01ZM300.39 0.60L300.39 0.60L300.39 0.60Q293.79 0.60 293.79-5.61L293.79-5.61L293.79-5.61Q293.79-10.02 296.22-12.87L296.22-12.87L296.22-12.87Q298.80-15.90 303.27-15.90L303.27-15.90L303.27-15.90Q306.51-15.90 308.16-14.40L308.16-14.40L308.16-14.40Q309.81-12.90 309.81-9.75L309.81-9.75L309.81-9.75Q309.81-4.95 307.23-2.16L307.23-2.16L307.23-2.16Q304.71 0.60 300.39 0.60ZM301.17-12.45L301.17-12.45L301.17-12.45Q300.81-11.64 300.53-10.42L300.53-10.42L300.53-10.42Q300.24-9.21 299.88-7.29L299.88-7.29L299.88-7.29Q299.52-5.37 299.52-3L299.52-3L299.52-3Q299.52-2.22 299.78-1.71L299.78-1.71L299.78-1.71Q300.03-1.20 300.72-1.20L300.72-1.20L300.72-1.20Q301.41-1.20 301.85-1.53L301.85-1.53L301.85-1.53Q302.28-1.86 302.61-2.64L302.61-2.64L302.61-2.64Q303.21-4.02 303.69-6.58L303.69-6.58L303.69-6.58Q304.17-9.15 304.22-10.26L304.22-10.26L304.22-10.26Q304.26-11.37 304.26-12.20L304.26-12.20L304.26-12.20Q304.26-13.02 304.02-13.56L304.02-13.56L304.02-13.56Q303.78-14.10 303.11-14.10L303.11-14.10L303.11-14.10Q302.43-14.10 301.98-13.68L301.98-13.68L301.98-13.68Q301.53-13.26 301.17-12.45ZM320.97-8.43L320.97-8.43L320.97-8.43Q322.05-10.35 322.05-12.30L322.05-12.30L322.05-12.30Q322.05-13.59 321.12-13.59L321.12-13.59L321.12-13.59Q320.40-13.59 319.65-12.36L319.65-12.36L319.65-12.36Q318.87-11.13 318.63-9.54L318.63-9.54L317.07 0L310.86 0.60L313.92-15.30L318.87-15.90L318.33-12.87L318.33-12.87Q319.80-15.90 323.10-15.90L323.10-15.90L323.10-15.90Q324.84-15.90 325.79-15L325.79-15L325.79-15Q326.73-14.10 326.73-12.25L326.73-12.25L326.73-12.25Q326.73-10.41 325.52-9.24L325.52-9.24L325.52-9.24Q324.30-8.07 322.23-8.07L322.23-8.07L322.23-8.07Q321.33-8.07 320.97-8.43ZM327.69-3L327.69-3L327.69-3Q327.69-3.81 328.11-5.85L328.11-5.85L329.70-13.95L327.93-13.95L328.05-14.85L328.05-14.85Q331.65-15.93 335.13-18.57L335.13-18.57L336.57-18.57L335.85-15.30L338.19-15.30L337.92-13.95L335.61-13.95L334.08-5.85L334.08-5.85Q333.69-3.99 333.69-3.36L333.69-3.36L333.69-3.36Q333.69-1.92 334.95-1.62L334.95-1.62L334.95-1.62Q334.65-0.60 333.57 0L333.57 0L333.57 0Q332.49 0.60 330.96 0.60L330.96 0.60L330.96 0.60Q329.43 0.60 328.56-0.36L328.56-0.36L328.56-0.36Q327.69-1.32 327.69-3ZM349.74-17.40L349.74-17.40L349.74-17.40Q350.16-18.12 350.16-18.90L350.16-18.90L350.16-18.90Q350.16-20.28 349.32-20.28L349.32-20.28L349.32-20.28Q348.03-20.28 347.49-17.64L347.49-17.64L347.04-15.30L349.77-15.30L349.59-13.95L346.77-13.95L344.07 0L338.01 0.60L340.89-13.95L338.76-13.95L339.03-15.30L341.13-15.30L341.76-17.67L341.76-17.67Q342.30-19.86 344.61-20.88L344.61-20.88L344.61-20.88Q346.29-21.60 349.11-21.60L349.11-21.60L349.11-21.60Q351.93-21.60 353.19-20.88L353.19-20.88L353.19-20.88Q354.45-20.16 354.45-19.20L354.45-19.20L354.45-19.20Q354.45-18.24 353.70-17.64L353.70-17.64L353.70-17.64Q352.95-17.04 352.11-17.04L352.11-17.04L352.11-17.04Q350.46-17.04 349.74-17.40ZM355.80 0.60L355.80 0.60L355.80 0.60Q349.20 0.60 349.20-5.61L349.20-5.61L349.20-5.61Q349.20-10.02 351.63-12.87L351.63-12.87L351.63-12.87Q354.21-15.90 358.68-15.90L358.68-15.90L358.68-15.90Q361.92-15.90 363.57-14.40L363.57-14.40L363.57-14.40Q365.22-12.90 365.22-9.75L365.22-9.75L365.22-9.75Q365.22-4.95 362.64-2.16L362.64-2.16L362.64-2.16Q360.12 0.60 355.80 0.60ZM356.58-12.45L356.58-12.45L356.58-12.45Q356.22-11.64 355.94-10.42L355.94-10.42L355.94-10.42Q355.65-9.21 355.29-7.29L355.29-7.29L355.29-7.29Q354.93-5.37 354.93-3L354.93-3L354.93-3Q354.93-2.22 355.19-1.71L355.19-1.71L355.19-1.71Q355.44-1.20 356.13-1.20L356.13-1.20L356.13-1.20Q356.82-1.20 357.25-1.53L357.25-1.53L357.25-1.53Q357.69-1.86 358.02-2.64L358.02-2.64L358.02-2.64Q358.62-4.02 359.10-6.58L359.10-6.58L359.10-6.58Q359.58-9.15 359.63-10.26L359.63-10.26L359.63-10.26Q359.67-11.37 359.67-12.20L359.67-12.20L359.67-12.20Q359.67-13.02 359.43-13.56L359.43-13.56L359.43-13.56Q359.19-14.10 358.51-14.10L358.51-14.10L358.51-14.10Q357.84-14.10 357.39-13.68L357.39-13.68L357.39-13.68Q356.94-13.26 356.58-12.45ZM374.16-1.65L374.16-1.65L374.16-1.65Q373.23 0.60 370.26 0.60L370.26 0.60L370.26 0.60Q368.76 0.60 367.80-0.45L367.80-0.45L367.80-0.45Q367.02-1.32 367.02-2.31L367.02-2.31L367.02-2.31Q367.02-4.56 368.07-9.48L368.07-9.48L370.26-21L376.35-21.60L373.44-6.42L373.44-6.42Q372.93-4.20 372.93-3.42L372.93-3.42L372.93-3.42Q372.93-1.71 374.16-1.65ZM383.91-1.65L383.91-1.65L383.91-1.65Q382.98 0.60 380.01 0.60L380.01 0.60L380.01 0.60Q378.48 0.60 377.52-0.45L377.52-0.45L377.52-0.45Q376.71-1.38 376.71-2.31L376.71-2.31L376.71-2.31Q376.71-4.74 377.82-9.48L377.82-9.48L378.93-15.30L385.02-15.90L383.19-6.42L383.19-6.42Q382.68-4.20 382.68-3.42L382.68-3.42L382.68-3.42Q382.68-1.71 383.91-1.65ZM379.47-19.47L379.47-19.47L379.47-19.47Q379.47-20.64 380.45-21.27L380.45-21.27L380.45-21.27Q381.42-21.90 382.83-21.90L382.83-21.90L382.83-21.90Q384.24-21.90 385.10-21.27L385.10-21.27L385.10-21.27Q385.95-20.64 385.95-19.47L385.95-19.47L385.95-19.47Q385.95-18.30 385.01-17.70L385.01-17.70L385.01-17.70Q384.06-17.10 382.65-17.10L382.65-17.10L382.65-17.10Q381.24-17.10 380.36-17.70L380.36-17.70L380.36-17.70Q379.47-18.30 379.47-19.47ZM393.00 0.60L393.00 0.60L393.00 0.60Q386.40 0.60 386.40-5.61L386.40-5.61L386.40-5.61Q386.40-10.02 388.83-12.87L388.83-12.87L388.83-12.87Q391.41-15.90 395.88-15.90L395.88-15.90L395.88-15.90Q399.12-15.90 400.77-14.40L400.77-14.40L400.77-14.40Q402.42-12.90 402.42-9.75L402.42-9.75L402.42-9.75Q402.42-4.95 399.84-2.16L399.84-2.16L399.84-2.16Q397.32 0.60 393.00 0.60ZM393.78-12.45L393.78-12.45L393.78-12.45Q393.42-11.64 393.14-10.42L393.14-10.42L393.14-10.42Q392.85-9.21 392.49-7.29L392.49-7.29L392.49-7.29Q392.13-5.37 392.13-3L392.13-3L392.13-3Q392.13-2.22 392.39-1.71L392.39-1.71L392.39-1.71Q392.64-1.20 393.33-1.20L393.33-1.20L393.33-1.20Q394.02-1.20 394.46-1.53L394.46-1.53L394.46-1.53Q394.89-1.86 395.22-2.64L395.22-2.64L395.22-2.64Q395.82-4.02 396.30-6.58L396.30-6.58L396.30-6.58Q396.78-9.15 396.83-10.26L396.83-10.26L396.83-10.26Q396.87-11.37 396.87-12.20L396.87-12.20L396.87-12.20Q396.87-13.02 396.63-13.56L396.63-13.56L396.63-13.56Q396.39-14.10 395.72-14.10L395.72-14.10L395.72-14.10Q395.04-14.10 394.59-13.68L394.59-13.68L394.59-13.68Q394.14-13.26 393.78-12.45Z" fill="url(#editing-rainbow-gradient)"></path></g></g><style>text {
  font-size: 64px;
  font-family: Arial Black;
  dominant-baseline: central;
  text-anchor: middle;
}</style></svg>